<svg id="svg" version="1.1" xmlns="http://www.w3.org/2000/svg" xmlns:xlink="http://www.w3.org/1999/xlink" width="400" height="400" viewBox="0, 0, 400,400"><g id="svgg"><path id="path0" d="M112.238 71.777 C 98.492 89.671,98.448 89.741,99.827 91.710 C 100.380 92.499,100.760 92.579,104.026 92.582 C 106.001 92.585,108.295 92.699,109.124 92.836 L 110.630 93.084 110.396 101.718 C 110.267 106.466,110.053 116.433,109.920 123.867 L 109.678 137.382 110.991 138.215 C 111.714 138.673,112.535 139.200,112.817 139.386 C 113.229 139.658,112.946 141.784,111.373 150.233 C 110.296 156.013,109.043 162.852,108.588 165.430 C 107.633 170.842,103.110 194.406,101.907 200.240 L 101.092 204.192 99.472 204.037 C 95.987 203.703,65.499 201.563,64.229 201.563 C 63.031 201.563,62.733 201.791,61.556 203.613 C 60.828 204.741,58.261 207.861,55.852 210.547 C 53.444 213.232,48.890 218.418,45.732 222.070 C 33.586 236.120,33.617 235.991,42.291 236.429 C 43.315 236.481,44.171 236.611,44.194 236.719 C 44.216 236.826,44.104 247.314,43.944 260.024 L 43.652 283.134 41.846 283.807 C 33.095 287.064,21.094 294.536,21.094 296.727 C 21.094 297.849,20.171 297.835,31.568 296.887 C 46.542 295.642,54.387 295.313,69.112 295.311 C 82.336 295.310,83.244 295.263,87.891 294.339 C 95.941 292.739,120.368 291.871,119.006 293.233 C 118.909 293.331,115.779 294.190,112.051 295.143 C 101.427 297.857,91.471 301.742,83.607 306.242 C 78.581 309.119,78.578 309.116,86.378 308.732 C 117.448 307.205,135.931 308.803,166.016 315.621 C 187.357 320.457,186.331 320.303,211.328 322.459 C 240.047 324.936,243.511 325.170,243.164 324.609 C 243.031 324.395,243.197 324.219,243.532 324.219 C 249.950 324.219,220.367 311.624,205.859 308.180 L 203.711 307.670 205.273 307.316 C 207.778 306.749,217.267 307.290,223.676 308.365 C 229.776 309.388,237.261 310.882,264.648 316.543 C 273.457 318.364,283.213 320.319,286.328 320.887 C 289.443 321.456,292.299 322.010,292.673 322.119 C 293.968 322.495,292.950 321.146,290.614 319.390 C 284.645 314.903,273.264 310.224,256.641 305.425 C 249.442 303.346,249.713 303.113,258.398 303.912 C 275.042 305.443,290.938 308.187,319.324 314.429 C 332.101 317.239,332.576 316.515,321.682 310.833 L 316.602 308.183 320.117 308.396 C 336.405 309.384,364.955 311.974,376.660 313.526 C 378.377 313.754,378.516 313.710,378.516 312.928 C 378.516 308.008,364.985 298.563,351.563 294.113 C 348.520 293.105,347.118 292.459,347.219 292.113 C 347.301 291.832,347.456 272.310,347.565 248.730 L 347.762 205.859 350.586 205.859 C 354.048 205.859,355.469 205.016,355.469 202.960 C 355.469 201.803,354.821 201.084,348.730 195.476 C 342.691 189.915,334.795 182.542,319.336 168.027 L 314.258 163.259 312.500 163.462 C 310.304 163.716,261.505 167.185,260.118 167.187 C 259.056 167.188,253.656 171.893,237.734 186.692 C 233.673 190.467,229.355 194.463,228.138 195.573 L 225.925 197.591 223.355 193.425 C 221.942 191.133,214.857 179.590,207.612 167.773 C 200.367 155.957,192.204 142.686,189.471 138.281 C 186.738 133.877,184.314 129.921,184.085 129.491 C 183.815 128.981,183.622 122.536,183.534 111.049 L 183.398 93.391 185.547 93.164 C 190.010 92.693,190.997 91.979,191.010 89.213 C 191.019 87.232,190.052 86.416,175.867 76.452 C 168.408 71.212,161.465 66.332,160.440 65.607 L 158.574 64.289 140.127 63.221 C 129.981 62.633,121.226 62.143,120.672 62.131 C 119.808 62.112,118.608 63.485,112.238 71.777 M132.422 74.773 C 139.790 81.928,139.539 81.553,136.739 81.223 C 133.693 80.864,132.462 79.943,127.970 74.657 C 123.545 69.450,123.205 68.914,123.845 68.144 C 124.515 67.337,125.736 68.281,132.422 74.773 M126.934 93.359 C 129.823 93.574,132.680 93.750,133.281 93.750 L 134.375 93.750 134.375 99.700 L 134.375 105.651 130.465 109.575 C 126.642 113.410,126.544 113.553,126.126 115.929 L 125.698 118.359 121.773 118.359 L 117.849 118.359 118.104 113.611 C 118.244 110.999,118.359 105.187,118.359 100.696 L 118.359 92.530 120.020 92.749 C 120.933 92.869,124.044 93.143,126.934 93.359 M165.545 94.942 C 169.134 95.130,172.905 95.395,173.926 95.530 L 175.781 95.776 175.809 99.353 C 175.825 101.320,175.919 104.466,176.018 106.345 L 176.199 109.759 172.963 106.517 C 168.357 101.903,164.556 99.671,159.961 98.882 L 158.398 98.614 158.280 96.342 C 158.198 94.766,158.293 94.150,158.591 94.334 C 158.827 94.480,161.956 94.754,165.545 94.942 M146.165 95.149 C 150.073 95.581,150.391 95.782,150.391 97.827 C 150.391 100.251,149.489 101.010,146.193 101.363 C 144.774 101.515,143.381 101.729,143.096 101.838 C 142.688 101.995,142.578 101.233,142.578 98.242 C 142.578 95.109,142.676 94.485,143.138 94.662 C 143.445 94.780,144.808 95.000,146.165 95.149 M151.767 110.840 C 151.343 118.833,150.811 118.859,146.118 111.116 L 144.777 108.902 145.728 108.162 C 146.541 107.530,150.681 105.949,151.699 105.881 C 151.882 105.869,151.913 108.101,151.767 110.840 M162.319 107.612 C 163.187 108.116,164.310 108.864,164.815 109.273 L 165.733 110.017 161.295 113.775 C 158.854 115.842,156.807 117.484,156.747 117.424 C 156.631 117.308,157.527 111.830,158.244 108.267 C 158.723 105.884,159.215 105.805,162.319 107.612 M136.521 115.059 C 135.995 116.337,135.561 117.690,135.556 118.066 C 135.548 118.640,135.171 118.750,133.203 118.750 C 129.881 118.750,130.829 116.764,135.705 113.510 C 137.643 112.217,137.669 112.266,136.521 115.059 M170.121 116.504 C 170.463 117.632,170.845 119.390,170.972 120.410 L 171.203 122.266 169.060 122.266 C 165.762 122.266,159.764 121.786,159.780 121.524 C 159.804 121.131,168.675 114.505,169.223 114.471 C 169.376 114.461,169.780 115.376,170.121 116.504 M146.180 117.803 L 148.943 119.590 148.143 120.390 C 147.591 120.942,146.757 121.215,145.449 121.272 C 142.202 121.413,142.056 121.299,142.345 118.835 C 142.746 115.426,142.577 115.472,146.180 117.803 M135.020 126.045 C 137.029 126.321,137.178 126.717,135.494 127.304 C 134.820 127.539,134.067 128.006,133.821 128.342 C 133.428 128.880,132.311 128.920,124.500 128.675 L 115.625 128.397 115.625 126.833 L 115.625 125.269 124.474 125.541 C 129.340 125.690,134.086 125.917,135.020 126.045 M170.703 130.339 C 170.703 130.947,168.169 135.161,166.984 136.523 L 165.625 138.086 164.242 136.523 C 162.271 134.297,160.923 131.918,161.013 130.824 L 161.090 129.883 165.897 130.003 C 168.540 130.069,170.703 130.220,170.703 130.339 M183.285 145.313 C 189.652 155.607,194.141 163.130,194.141 163.505 C 194.141 164.476,182.280 149.660,180.915 146.983 C 179.930 145.053,177.974 137.173,178.666 137.923 C 178.748 138.013,180.827 141.338,183.285 145.313 M126.221 146.260 C 129.252 147.668,130.634 149.131,131.590 151.942 C 131.843 152.688,132.502 153.769,133.053 154.344 C 133.848 155.174,133.972 155.539,133.654 156.113 C 132.754 157.736,117.535 172.455,117.760 171.484 C 118.115 169.949,122.656 145.619,122.656 145.251 C 122.656 144.705,123.211 144.862,126.221 146.260 M172.931 146.539 C 173.532 147.320,176.024 150.221,178.469 152.984 C 180.914 155.747,185.100 160.612,187.771 163.794 L 192.629 169.580 186.477 176.031 C 183.094 179.580,179.698 183.186,178.932 184.046 L 177.539 185.610 173.161 168.387 C 170.753 158.915,168.482 150.529,168.113 149.753 L 167.443 148.341 169.366 146.647 C 171.596 144.683,171.507 144.686,172.931 146.539 M162.631 156.641 C 162.979 158.467,163.701 162.686,164.236 166.016 C 164.771 169.346,165.830 175.132,166.589 178.875 C 167.348 182.617,167.969 185.825,167.969 186.004 C 167.969 186.182,164.980 186.328,161.328 186.328 L 154.688 186.328 154.688 170.765 L 154.688 155.202 156.738 154.729 C 157.866 154.469,159.404 153.928,160.156 153.526 C 161.863 152.614,161.867 152.619,162.631 156.641 M145.169 176.855 C 145.034 188.403,144.812 212.409,144.676 230.202 C 144.539 247.995,144.292 262.409,144.126 262.233 C 143.961 262.058,143.732 261.563,143.617 261.133 C 143.502 260.703,143.418 261.406,143.430 262.695 C 143.443 263.984,143.408 266.357,143.354 267.969 L 143.255 270.898 142.917 268.945 C 142.341 265.622,142.072 226.076,142.380 190.137 L 142.673 155.859 144.044 155.859 L 145.414 155.859 145.169 176.855 M133.893 186.159 C 133.337 186.715,115.219 186.445,115.317 185.882 C 115.379 185.529,119.561 180.888,124.609 175.570 L 133.789 165.899 133.893 175.977 C 133.951 181.519,133.951 186.101,133.893 186.159 M198.150 177.452 C 199.951 179.814,212.680 200.451,221.066 214.605 L 229.372 228.624 227.870 230.111 L 226.367 231.598 220.508 226.299 C 217.285 223.385,213.058 219.571,211.115 217.825 C 209.172 216.078,202.333 209.902,195.918 204.102 C 189.504 198.301,183.736 193.112,183.102 192.571 L 181.950 191.587 189.315 183.920 C 197.708 175.183,196.880 175.788,198.150 177.452 M132.421 205.762 C 132.422 211.401,132.363 216.016,132.291 216.016 C 132.218 216.016,130.268 213.903,127.956 211.322 C 122.876 205.648,123.588 206.042,117.389 205.483 C 114.600 205.232,112.246 204.954,112.158 204.867 C 111.596 204.305,113.893 195.728,114.634 195.622 C 115.072 195.559,119.253 195.508,123.925 195.508 L 132.421 195.508 132.421 205.762 M168.675 195.897 C 168.741 195.958,165.630 202.312,161.762 210.016 L 154.730 224.023 154.709 209.620 L 154.688 195.218 161.621 195.502 C 165.435 195.658,168.609 195.836,168.675 195.897 M199.788 218.186 C 209.387 226.983,217.747 234.625,218.366 235.168 L 219.492 236.157 212.871 240.765 L 206.250 245.374 206.250 265.558 L 206.251 285.742 201.970 285.384 L 197.689 285.027 197.109 282.455 C 196.789 281.040,195.911 276.895,195.157 273.242 C 194.403 269.590,192.733 261.762,191.447 255.848 C 190.160 249.933,188.038 239.474,186.729 232.606 C 183.684 216.613,180.883 202.358,180.597 201.399 C 180.270 200.299,180.245 200.277,199.788 218.186 M70.534 210.282 C 71.758 210.896,74.054 213.385,78.527 218.945 C 79.910 220.664,82.626 223.740,84.563 225.781 C 86.501 227.822,88.512 229.976,89.033 230.567 L 89.980 231.641 87.688 231.641 L 85.397 231.641 81.854 228.027 C 74.527 220.553,66.615 210.439,66.193 208.008 L 65.922 206.445 67.629 208.063 C 68.568 208.953,69.875 209.951,70.534 210.282 M174.986 222.070 C 176.263 228.945,177.424 234.966,177.566 235.449 L 177.825 236.328 168.014 236.328 C 162.618 236.328,158.203 236.215,158.203 236.076 C 158.203 235.833,162.645 227.162,169.280 214.453 C 171.019 211.123,172.491 208.662,172.553 208.984 C 172.614 209.307,173.709 215.195,174.986 222.070 M299.035 210.695 C 299.042 210.721,298.982 215.672,298.902 221.696 L 298.757 232.651 296.546 232.374 C 295.331 232.222,292.946 232.082,291.248 232.064 L 288.160 232.031 288.416 226.696 C 288.557 223.762,288.672 218.860,288.672 215.804 L 288.672 210.247 293.848 210.448 C 296.694 210.558,299.029 210.670,299.035 210.695 M327.071 212.735 L 330.119 212.986 329.890 221.239 C 329.763 225.778,329.562 230.615,329.442 231.988 L 329.223 234.483 326.271 234.234 C 324.648 234.097,322.671 233.984,321.878 233.984 L 320.437 233.984 320.171 224.229 C 320.026 218.863,319.796 213.921,319.661 213.246 L 319.416 212.019 321.720 212.252 C 322.987 212.380,325.395 212.597,327.071 212.735 M170.916 245.106 C 180.299 245.275,179.247 244.492,180.805 252.463 C 182.868 263.020,184.790 273.544,184.675 273.655 C 184.589 273.738,170.097 258.051,160.777 247.785 C 158.102 244.839,158.251 244.370,161.736 244.746 C 162.927 244.875,167.058 245.037,170.916 245.106 M71.390 246.744 L 77.022 246.999 76.726 251.527 C 76.563 254.017,76.424 260.472,76.417 265.871 L 76.403 275.687 70.135 276.718 C 66.688 277.285,63.674 277.746,63.438 277.742 C 63.140 277.737,62.929 273.595,62.747 264.160 C 62.602 256.694,62.376 249.548,62.244 248.279 L 62.003 245.973 63.880 246.230 C 64.913 246.372,68.292 246.603,71.390 246.744 M167.160 267.959 C 171.120 272.154,176.394 277.672,178.879 280.221 L 183.398 284.857 175.035 284.616 C 170.435 284.483,163.799 284.375,160.289 284.375 L 153.906 284.375 153.906 269.145 L 153.906 253.915 156.934 257.123 C 158.599 258.888,163.201 263.764,167.160 267.959 M312.341 256.112 L 316.992 256.364 317.114 272.371 L 317.236 288.377 315.161 288.148 C 314.020 288.022,311.328 287.811,309.180 287.679 C 307.031 287.547,304.965 287.353,304.589 287.248 C 303.951 287.069,303.905 285.994,303.916 271.458 L 303.927 255.859 305.808 255.859 C 306.843 255.859,309.783 255.973,312.341 256.112 " stroke="none" fill="#000000" fill-rule="evenodd"></path></g></svg>